<?xml version="1.0" encoding="iso-8859-1"?>
<!-- Uploaded to: SVG Repo, www.svgrepo.com, Generator: SVG Repo Mixer Tools -->
<svg version="1.1" id="Capa_1" xmlns="http://www.w3.org/2000/svg" xmlns:xlink="http://www.w3.org/1999/xlink" 
	 viewBox="0 0 493.474 493.474" xml:space="preserve">
<g>
	<g>
		<path style="fill:#010002;" d="M314.284,314.029c-30.563,23.814-55.479,53.227-80.686,82.352
			c-10.786-11.428-20.596-23.559-26.917-38.184c-7.154-16.676-34.342,7.584-27.895,22.598c8.817,20.387,24.519,36.965,39.977,52.584
			c6.305,6.416,17.138-0.832,21.491-5.793c27.652-31.398,53.448-64.443,86.638-90.305
			C342.816,324.894,333.261,299.242,314.284,314.029z"/>
		<path style="fill:#010002;" d="M402.266,35.399h-76.354c-5.358-5.895-13.04-9.679-21.632-9.679h-29.412v-4.984
			C274.867,9.946,260.415,0,246.738,0c-13.678,0-28.13,9.946-28.13,20.736v4.984h-29.413c-8.592,0-16.273,3.784-21.632,9.679H91.176
			c-8.099,0-14.594,6.554-14.594,14.619v428.829c0,8.049,6.479,14.627,14.594,14.627h311.091c8.081,0,14.626-6.527,14.626-14.627
			V50.018C416.891,41.953,410.346,35.399,402.266,35.399z M387.607,464.238H105.787V64.636h42.285v0.003h13.47
			c3.971,11.538,14.772,19.892,27.668,19.892h57.528h57.528c12.896,0,23.697-8.354,27.668-19.892h13.47v-0.003h42.204
			L387.607,464.238L387.607,464.238z"/>
		<rect x="133.1" y="114.818" style="fill:#010002;" width="227.273" height="22.729"/>
		<rect x="133.1" y="164.818" style="fill:#010002;" width="227.273" height="22.729"/>
		<rect x="133.1" y="214.818" style="fill:#010002;" width="227.273" height="22.729"/>
		<rect x="133.1" y="264.818" style="fill:#010002;" width="227.273" height="22.729"/>
	</g>
</g>
</svg>